<svg xmlns="http://www.w3.org/2000/svg" viewBox="0 0 256 256">
  <rect width="256" height="256" fill="#1e3a8a"/>
  <path d="M80 60h96c8.8 0 16 7.2 16 16v120c0 8.8-7.2 16-16 16H80c-8.8 0-16-7.2-16-16V76c0-8.8 7.2-16 16-16z" fill="#3b82f6"/>
  <rect x="88" y="84" width="80" height="8" rx="2" fill="#e5e7eb"/>
  <rect x="88" y="104" width="80" height="8" rx="2" fill="#e5e7eb"/>
  <rect x="88" y="124" width="60" height="8" rx="2" fill="#e5e7eb"/>
  <circle cx="128" cy="168" r="28" fill="#60a5fa"/>
  <path d="M128 152v32M112 168h32" stroke="#1e3a8a" stroke-width="6" stroke-linecap="round"/>
  <rect x="108" y="184" width="40" height="16" rx="2" fill="#1e3a8a"/>
  <rect x="114" y="188" width="28" height="2" fill="#60a5fa"/>
  <rect x="114" y="192" width="28" height="2" fill="#60a5fa"/>
  <rect x="114" y="196" width="20" height="2" fill="#60a5fa"/>
</svg>